<?xml version="1.0" encoding="UTF-8"?>
<svg id="Layer_1" data-name="Layer 1" xmlns="http://www.w3.org/2000/svg" viewBox="0 0 230.25 77.91">
  <defs>
    <style>
      .cls-1 {
        stroke-width: 0px;
      }
    </style>
  </defs>
  <g>
    <polygon class="cls-1" points="0 49.45 5.64 49.45 5.64 61.98 9.09 61.98 9.09 49.46 14.87 49.49 14.87 46.58 0 46.54 0 49.45"/>
    <polygon class="cls-1" points="22.28 61.98 35.8 61.98 35.8 59.06 25.72 59.06 25.72 55.68 34.77 55.71 34.77 52.83 25.72 52.8 25.72 49.61 35.8 49.61 35.8 46.73 22.28 46.73 22.28 61.98"/>
    <polygon class="cls-1" points="57.07 56.94 46.99 46.81 43.61 46.81 43.61 61.98 47.05 61.98 47.05 51.67 57.25 61.85 57.4 61.98 60.52 61.98 60.52 46.81 57.07 46.81 57.07 56.94"/>
    <path class="cls-1" d="m93.53,53.3c-1.42-.23-2.77-.39-4.09-.53-.89-.1-1.78-.2-2.71-.33-1.06-.14-1.6-.55-1.7-.72-.21-.37.04-.79.21-.96.69-.71,2.2-1.13,4.02-1.1,1.73.02,3.31.46,4.35,1.21.68.49,1.09,1.08,1.09,1.09l.28.42,2.79-1.93-.32-.42c-1.48-1.93-4.37-3.18-7.56-3.26-4.02-.09-6.78.92-7.96,2.94-.85,1.45-.62,3.12.58,4.24,1.39,1.3,3.7,1.63,7.05,1.98,1.99.21,3.82.44,4.4,1.01.15.15.4.45.35.79-.05.32-.36.64-.9.92-1.61.83-5.19.59-7.07-.17-1.45-.58-2.26-1.49-2.27-1.5l-.3-.34-2.76,2,.25.4c.06.09.41.59,1.71,1.44,1.71,1.13,4.51,1.69,7.19,1.69s5.02-.52,6.28-1.57c1.26-1.05,1.79-2.62,1.36-4.1-.56-1.93-2.65-2.93-4.27-3.2Z"/>
    <polygon class="cls-1" points="104.05 49.45 109.69 49.45 109.69 61.98 113.14 61.98 113.14 49.46 118.92 49.49 118.92 46.58 104.05 46.54 104.05 49.45"/>
    <path class="cls-1" d="m143.25,46.86h-3.5s0,.5,0,.5c0,.23-.02,5.75.02,7.31.04,1.52-.3,2.63-1.03,3.38-.84.86-2.24,1.28-4.27,1.28h-.05c-1.63,0-3-.48-3.84-1.34-.7-.72-1.05-1.7-1.03-2.91.03-1.96-.04-7.67-.04-7.73v-.49h-3.57v2c-.02,1.79-.04,4.79,0,6.17.17,4.98,2.91,7.3,8.62,7.3,6.92,0,8.56-3.71,8.72-6.82.08-1.47.01-4.57-.03-6.43l-.02-2.23Z"/>
    <path class="cls-1" d="m159.35,46.8h-8.19v15.17h2.94c1.29,0,4,0,5.03,0h.41c5.65,0,8.89-2.77,8.89-7.6,0-4.61-3.56-7.58-9.07-7.58Zm5.38,7.58c0,1.56-.47,2.66-1.43,3.37-1.01.75-2.59,1.11-4.83,1.11h0s-2.29,0-3.86,0v-9h4.28c3.61,0,5.85,1.73,5.85,4.52Z"/>
    <rect class="cls-1" x="176.02" y="46.81" width="3.44" height="15.17"/>
    <path class="cls-1" d="m196.68,46.47c-5.65,0-9.6,3.22-9.6,7.83s4.04,7.82,9.6,7.82h.02c3.06,0,5.71-.97,7.47-2.72,1.39-1.38,2.12-3.15,2.12-5.1,0-4.61-3.95-7.83-9.6-7.83Zm5.87,7.73c0,2.39-1.55,4.94-5.91,4.94-3.31,0-5.9-2.17-5.9-4.94s2.55-4.83,5.94-4.83c4.33,0,5.87,2.49,5.87,4.83Z"/>
    <path class="cls-1" d="m230.11,56.5c-.56-1.93-2.65-2.93-4.27-3.2-1.42-.23-2.77-.39-4.09-.53-.89-.1-1.78-.2-2.71-.33-1.06-.14-1.6-.55-1.7-.72-.21-.37.04-.79.21-.96.69-.71,2.2-1.13,4.02-1.1,1.73.02,3.31.46,4.35,1.21.68.49,1.09,1.08,1.09,1.09l.28.42,2.79-1.93-.32-.42c-1.48-1.93-4.37-3.18-7.56-3.26-4.03-.09-6.78.92-7.96,2.94-.85,1.45-.62,3.12.58,4.24,1.39,1.3,3.7,1.63,7.05,1.98,1.99.21,3.82.44,4.4,1.01.15.15.4.45.35.79-.05.32-.36.64-.9.92-1.61.83-5.19.59-7.07-.17-1.45-.58-2.26-1.49-2.27-1.5l-.3-.34-2.76,2,.25.4c.06.09.41.59,1.71,1.44,1.71,1.13,4.51,1.69,7.19,1.69s5.02-.52,6.28-1.57c1.26-1.05,1.79-2.62,1.36-4.1Z"/>
  </g>
  <g>
    <polygon class="cls-1" points="53.36 76.8 51.42 73.23 50.28 73.23 50.28 77.84 51.24 77.84 51.24 74.72 52.93 77.84 53.75 77.84 55.47 74.72 55.47 77.84 56.4 77.84 56.4 73.23 55.3 73.23 53.36 76.8"/>
    <path class="cls-1" d="m63.41,73.21h-.85l-2.42,4.64h1.1s.6-1.19.6-1.19h2.28s.61,1.19.61,1.19h1.12s-2.41-4.59-2.41-4.59l-.03-.05Zm.3,2.65h-1.47l.74-1.55.73,1.55Z"/>
    <path class="cls-1" d="m72.09,73.22h-2.5v4.61h.86c.5,0,1.69,0,1.69,0,1.72,0,2.71-.84,2.71-2.31,0-1.4-1.09-2.31-2.77-2.31Zm1.73,2.31c0,1.01-.62,1.45-2.01,1.45,0,0-.77,0-1.26,0v-2.91h1.39c1.16,0,1.88.56,1.88,1.46Z"/>
    <polygon class="cls-1" points="78.73 77.84 82.83 77.84 82.83 77.04 79.69 77.04 79.69 75.88 82.51 75.89 82.51 75.1 79.69 75.09 79.69 73.99 82.83 73.99 82.83 73.2 78.73 73.2 78.73 77.84"/>
    <path class="cls-1" d="m94.91,73.12c-1.73,0-2.93.98-2.93,2.38s1.23,2.38,2.93,2.38h0c.94,0,1.75-.3,2.29-.83.42-.42.64-.96.64-1.55,0-1.4-1.21-2.38-2.94-2.38Zm0,.79c1.39,0,1.88.81,1.88,1.56s-.5,1.59-1.9,1.59c-1.06,0-1.89-.7-1.89-1.59s.82-1.56,1.91-1.56Z"/>
    <polygon class="cls-1" points="101.72 77.84 102.68 77.84 102.69 75.91 105.49 75.91 105.49 75.13 102.69 75.13 102.68 73.99 105.76 73.99 105.76 73.21 101.72 73.21 101.72 77.84"/>
    <polygon class="cls-1" points="118.12 76.8 116.19 73.23 115.04 73.23 115.04 77.84 116 77.84 116 74.72 117.69 77.84 118.52 77.84 120.23 74.72 120.23 77.84 121.16 77.84 121.16 73.23 120.06 73.23 118.12 76.8"/>
    <polygon class="cls-1" points="125.23 77.84 129.33 77.84 129.33 77.04 126.19 77.04 126.19 75.88 129.01 75.89 129.01 75.1 126.19 75.09 126.19 73.99 129.33 73.99 129.33 73.2 125.23 73.2 125.23 77.84"/>
    <polygon class="cls-1" points="136.34 76.8 134.41 73.23 133.27 73.23 133.27 77.84 134.22 77.84 134.22 74.72 135.92 77.84 136.74 77.84 138.46 74.72 138.46 77.84 139.38 77.84 139.38 73.23 138.28 73.23 136.34 76.8"/>
    <path class="cls-1" d="m146.19,73.12c-1.73,0-2.93.98-2.93,2.38s1.23,2.38,2.93,2.38h0c.94,0,1.75-.3,2.29-.83.42-.42.64-.96.64-1.55,0-1.4-1.21-2.38-2.94-2.38Zm0,.79c1.39,0,1.88.81,1.88,1.56s-.5,1.59-1.9,1.59c-1.06,0-1.89-.7-1.89-1.59s.82-1.56,1.91-1.56Z"/>
    <path class="cls-1" d="m157.98,74.6c.02-.61-.25-1.04-.79-1.29-.32-.15-.73-.16-1.16-.17h-3.02s0,4.7,0,4.7h1.01s0-1.83,0-1.83h1.39c.51,0,.77,0,.99.07.33.11.48.38.51.93.02.34.04.73.04.73v.09h.99l-.08-1.09c-.03-.43-.13-.92-.61-1.14.38-.15.71-.47.73-1.01Zm-3.97-.67c.42,0,1.37,0,1.82,0,.86,0,1.15.16,1.16.62,0,.36-.16.6-.99.64h-1.99s0-1.26,0-1.26Z"/>
    <rect class="cls-1" x="161.92" y="73.23" width=".96" height="4.61"/>
    <polygon class="cls-1" points="166.96 77.84 171.06 77.84 171.06 77.04 167.92 77.04 167.92 75.88 170.73 75.89 170.73 75.1 167.92 75.09 167.92 73.99 171.06 73.99 171.06 73.2 166.96 73.2 166.96 77.84"/>
    <path class="cls-1" d="m179.93,76.21c-.17-.58-.8-.88-1.28-.96-.44-.07-.87-.12-1.28-.17-.27-.03-.55-.06-.84-.1-.34-.05-.53-.18-.57-.25-.07-.13-.01-.28.07-.36.22-.23.69-.36,1.25-.36.01,0,.03,0,.04,0,.55,0,1.05.15,1.39.39.22.16.35.35.35.35l.06.08.77-.54-.06-.08c-.45-.59-1.34-.97-2.31-.99-1.23-.03-2.07.28-2.43.89-.25.43-.18.92.17,1.25.42.39,1.13.49,2.16.6.65.07,1.21.14,1.4.33.06.05.15.16.13.29-.02.12-.12.23-.31.33-.52.27-1.65.19-2.25-.05-.47-.19-.72-.48-.73-.48l-.06-.07-.78.56.05.08s.11.17.51.43c.52.35,1.39.52,2.21.52s1.53-.16,1.92-.48c.38-.31.53-.78.41-1.22Z"/>
  </g>
  <g>
    <g>
      <path class="cls-1" d="m131.75,32.21h-4.93c-.69,0-1.25-.56-1.25-1.25s.56-1.25,1.25-1.25h4.93c1.26,0,2.29-1.03,2.29-2.29v-15.14c0-.69.56-1.25,1.25-1.25s1.25.56,1.25,1.25v15.14c0,2.64-2.15,4.79-4.79,4.79Z"/>
      <path class="cls-1" d="m135.29,14.75c-.69,0-1.25-.56-1.25-1.25v-4.93c0-1.26-1.03-2.29-2.29-2.29h-4.93c-.69,0-1.25-.56-1.25-1.25s.56-1.25,1.25-1.25h4.93c2.64,0,4.79,2.15,4.79,4.79v4.93c0,.69-.56,1.25-1.25,1.25Z"/>
      <path class="cls-1" d="m101.43,32.21h-4.93c-2.64,0-4.79-2.15-4.79-4.79v-15.14c0-.69.56-1.25,1.25-1.25s1.25.56,1.25,1.25v15.14c0,1.26,1.03,2.29,2.29,2.29h4.93c.69,0,1.25.56,1.25,1.25s-.56,1.25-1.25,1.25Z"/>
      <path class="cls-1" d="m92.96,14.75c-.69,0-1.25-.56-1.25-1.25v-4.93c0-2.64,2.15-4.79,4.79-4.79h4.93c.69,0,1.25.56,1.25,1.25s-.56,1.25-1.25,1.25h-4.93c-1.26,0-2.29,1.03-2.29,2.29v4.93c0,.69-.56,1.25-1.25,1.25Z"/>
      <path class="cls-1" d="m111.83,31.96c-.08,0-.16,0-.25-.02-2.14-.43-4.12-1.33-5.86-2.67-3.01-2.31-4.94-5.66-5.43-9.42-.49-3.76.51-7.49,2.83-10.5,4.77-6.21,13.71-7.38,19.92-2.6,6.21,4.78,7.38,13.71,2.6,19.92-.42.55-1.2.65-1.75.23-.55-.42-.65-1.21-.23-1.75,3.94-5.12,2.97-12.48-2.15-16.42-5.12-3.94-12.49-2.97-16.42,2.15-1.91,2.48-2.73,5.55-2.33,8.65s1.99,5.86,4.47,7.77c1.44,1.11,3.06,1.85,4.83,2.2.68.14,1.12.79.98,1.47-.12.59-.64,1-1.22,1Z"/>
      <path class="cls-1" d="m105.84,2.5h-7.95c-.69,0-1.25-.56-1.25-1.25s.56-1.25,1.25-1.25h7.95c.69,0,1.25.56,1.25,1.25s-.56,1.25-1.25,1.25Z"/>
      <path class="cls-1" d="m126.89,20.5c-2.43,0-3.69-.76-4.81-1.43-1-.6-1.79-1.07-3.52-1.07s-2.53.47-3.52,1.07c-1.12.67-2.38,1.43-4.81,1.43s-3.69-.76-4.81-1.43c-1-.6-1.78-1.07-3.52-1.07-.69,0-1.25-.56-1.25-1.25s.56-1.25,1.25-1.25c2.43,0,3.69.76,4.81,1.43,1,.6,1.78,1.07,3.52,1.07s2.53-.47,3.52-1.07c1.12-.67,2.38-1.43,4.81-1.43s3.69.76,4.81,1.43c1,.6,1.79,1.07,3.52,1.07.69,0,1.25.56,1.25,1.25s-.56,1.25-1.25,1.25Z"/>
    </g>
    <g>
      <g>
        <path class="cls-1" d="m67.62,18.6h-2.05v.85s1.84,0,1.84,0v.38h-1.84s0,.88,0,.88h2.05v.39h-2.54v-2.89h2.54v.38Z"/>
        <path class="cls-1" d="m72.25,20.85c-.48.4-1.96.4-2.61-.03-.26-.17-.32-.26-.32-.26l.41-.3s.18.2.5.33c.42.17,1.17.21,1.52.03.31-.16.28-.37.14-.51-.14-.13-.47-.18-.95-.23-.69-.07-1.12-.14-1.37-.37-.2-.19-.26-.47-.1-.74.27-.47.95-.56,1.52-.55.63.02,1.18.26,1.46.62l-.39.27s-.09-.13-.25-.25c-.22-.16-.56-.26-.94-.26-.4,0-.73.09-.89.25-.07.07-.12.2-.06.31.04.08.2.17.42.2.47.06.9.1,1.38.17.21.04.67.18.79.58.07.25,0,.53-.24.73Z"/>
        <path class="cls-1" d="m76.78,18.19v.39h-1.17s0,2.53,0,2.53h-.5v-2.54h-1.14v-.39h2.81Z"/>
        <path class="cls-1" d="m81.79,19.67c0,.83-.51,1.44-1.7,1.44,0,0-.77,0-1.1,0h-.49v-2.88h1.56c1.09,0,1.74.59,1.74,1.44Zm-.55,0c0-.63-.5-1.02-1.29-1.02h-.97v2.03c.31,0,.88,0,.88,0,.95,0,1.37-.32,1.37-1.01Z"/>
      </g>
      <g>
        <path class="cls-1" d="m145.21,19.29s-.06-.1-.03-.3c.06-.35.26-.58.58-.79.22-.15.54-.24.83-.26,1.16-.09,1.72.32,1.93.81.12.28.1.62-.05.87-.48.8-2.42,1.09-2.42,1.09l2.48-.04v.52h-3.33v-.42c.92-.15,2.79-.84,2.76-1.65-.02-.46-.51-.76-1.04-.76-.69,0-.91.23-1.04.49-.09.17-.04.37-.02.44h-.67Z"/>
        <path class="cls-1" d="m154.54,19.59c0,.91-.91,1.65-2.03,1.65s-2.03-.74-2.03-1.65.91-1.65,2.03-1.65,2.03.74,2.03,1.65Zm-.56,0c0-.69-.65-1.22-1.45-1.22s-1.45.53-1.45,1.22.64,1.22,1.44,1.22,1.47-.53,1.47-1.22Z"/>
        <path class="cls-1" d="m156.46,19.29s-.06-.1-.03-.3c.06-.35.26-.58.58-.79.22-.15.54-.24.83-.26,1.16-.09,1.72.32,1.93.81.12.28.1.62-.05.87-.48.8-2.42,1.09-2.42,1.09l2.48-.04v.52h-3.33v-.42c.92-.15,2.79-.84,2.76-1.65-.02-.46-.51-.76-1.04-.76-.69,0-.91.23-1.04.49-.09.17-.04.37-.02.44h-.67Z"/>
        <path class="cls-1" d="m161.77,19.29s-.06-.1-.03-.3c.06-.35.26-.58.58-.79.22-.15.54-.24.83-.26,1.16-.09,1.72.32,1.93.81.12.28.1.62-.05.87-.48.8-2.42,1.09-2.42,1.09l2.48-.04v.52h-3.33v-.42c.92-.15,2.79-.84,2.76-1.65-.02-.46-.51-.76-1.04-.76-.69,0-.9.23-1.04.49-.09.17-.04.37-.02.44h-.67Z"/>
      </g>
    </g>
  </g>
</svg>