<?xml version="1.0" encoding="UTF-8"?>
<svg id="Layer_1" data-name="Layer 1" xmlns="http://www.w3.org/2000/svg" viewBox="0 0 140.42 118.66">
  <defs>
    <style>
      .cls-1 {
        stroke-width: 0px;
      }
    </style>
  </defs>
  <path class="cls-1" d="m140.41,33.45v-11.55c0-7.49-6.09-13.59-13.59-13.59h-15.38c-1.41,0-2.55,1.14-2.55,2.55s1.14,2.55,2.55,2.55h15.38c4.68,0,8.49,3.81,8.49,8.49v15.38s0,0,0,0v43.43c0,4.68-3.81,8.49-8.49,8.49h-15.38c-1.41,0-2.55,1.14-2.55,2.55s1.14,2.55,2.55,2.55h15.38c7.49,0,13.59-6.09,13.59-13.59v-47.26s0,0,0,0Z"/>
  <path class="cls-1" d="m5.76,70.85c1.41,0,2.55-1.14,2.55-2.55V23.11c0-5.35,3.81-9.71,8.49-9.71h15.38c1.41,0,2.55-1.14,2.55-2.55s-1.14-2.55-2.55-2.55h-15.38c-7.49,0-13.59,6.64-13.59,14.8v45.19c0,1.41,1.14,2.55,2.55,2.55Z"/>
  <path class="cls-1" d="m21.15,5.09h24.81c1.41,0,2.55-1.14,2.55-2.55S47.36,0,45.96,0h-24.81C19.74,0,18.6,1.14,18.6,2.55s1.14,2.55,2.55,2.55Z"/>
  <polygon class="cls-1" points="5.07 96.23 8.94 96.23 8.94 84.57 14.14 84.6 14.14 81.09 0 81.05 0 84.56 5.07 84.56 5.07 96.23"/>
  <polygon class="cls-1" points="32.95 92.71 23.88 92.71 23.89 90.36 32.02 90.39 32.02 86.92 23.89 86.89 23.88 84.71 32.95 84.71 32.95 81.23 20.02 81.23 20.02 96.23 32.95 96.23 32.95 92.71"/>
  <polygon class="cls-1" points="43.06 87.19 51.8 96.23 55.16 96.23 55.16 81.3 51.3 81.3 51.3 90.17 42.78 81.3 39.19 81.3 39.19 96.23 43.06 96.23 43.06 87.19"/>
  <path class="cls-1" d="m8.67,106.84c1.53.02,2.92.4,3.83,1.05.57.41.91.91.92.91l.49.73,3.28-2.26-.55-.72c-1.45-1.89-4.26-3.12-7.35-3.19-3.96-.1-6.57.89-7.77,2.94-.89,1.52-.65,3.26.61,4.44,1.39,1.3,3.5,1.61,6.8,1.95,1.26.13,3.38.35,3.86.83.14.14.23.3.21.39-.02.12-.19.34-.63.56-1.26.65-4.42.57-6.26-.17-1.25-.5-1.95-1.29-1.96-1.29l-.52-.6-3.18,2.3.44.69c.09.13.46.64,1.7,1.46,1.67,1.1,4.34,1.66,6.9,1.66s4.86-.52,6.12-1.57h0c1.3-1.09,1.83-2.71,1.39-4.24-.73-2.55-3.7-3.17-4.3-3.26-1.32-.22-2.57-.36-3.83-.5-.82-.09-1.65-.18-2.51-.3-.78-.1-1.22-.38-1.29-.48-.07-.12.04-.32.13-.42.44-.45,1.59-.93,3.45-.9Z"/>
  <polygon class="cls-1" points="22.05 106.65 27.31 106.65 27.31 118.31 31.31 118.31 31.31 106.65 36.7 106.68 36.7 103.17 22.05 103.14 22.05 106.65"/>
  <path class="cls-1" d="m59.36,103.44h-4.05s0,.86,0,.86c0,0-.02,5.36.02,6.82.03,1.3-.24,2.24-.85,2.86-.71.73-1.86,1.08-3.73,1.08-1.41,0-2.58-.41-3.3-1.13-.58-.59-.86-1.4-.84-2.42.03-1.85-.04-7.22-.04-7.22v-.85h-4.12v2.34c-.02,1.65-.04,4.41,0,5.68.16,4.84,2.92,7.19,8.43,7.19,6.76,0,8.36-3.66,8.52-6.73.07-1.39.01-4.29-.02-6.02l-.02-2.47Z"/>
  <path class="cls-1" d="m73.97,103.38h-8.03v14.93h3.13c1.5,0,5.06,0,5.06,0,5.43,0,8.68-2.79,8.68-7.47s-3.47-7.46-8.84-7.46Zm-.83,11.24s-1.78,0-3.2,0v-7.59h3.59c3.16,0,5.05,1.43,5.05,3.81,0,1.97-.66,3.78-5.45,3.78Z"/>
  <rect class="cls-1" x="89.09" y="103.39" width="4" height="14.93"/>
  <path class="cls-1" d="m108.74,103.07c-5.41,0-9.34,3.23-9.34,7.69s3.93,7.69,9.34,7.69h.02c2.95,0,5.52-.94,7.24-2.65,1.37-1.36,2.09-3.1,2.09-5.03,0-4.53-3.84-7.69-9.34-7.69Zm-.04,11.8c-2.86,0-5.1-1.84-5.1-4.2s2.16-4.1,5.14-4.1c3.13,0,5.07,1.57,5.07,4.1s-1.91,4.2-5.11,4.2Z"/>
  <path class="cls-1" d="m131.91,106.84c1.53.02,2.92.4,3.83,1.05.57.41.91.91.92.91l.49.73,3.28-2.26-.55-.72c-1.45-1.89-4.26-3.12-7.35-3.19-3.96-.1-6.57.89-7.77,2.94-.89,1.52-.65,3.26.61,4.44,1.39,1.3,3.5,1.61,6.8,1.95,1.26.13,3.37.35,3.86.83.14.14.23.3.21.39-.02.12-.19.34-.63.56-1.26.65-4.42.57-6.26-.17-1.25-.5-1.96-1.29-1.96-1.29l-.52-.6-3.18,2.3.44.69c.09.13.46.64,1.7,1.46,1.67,1.1,4.34,1.66,6.9,1.66s4.86-.52,6.11-1.57c1.3-1.09,1.84-2.71,1.4-4.24-.73-2.55-3.71-3.17-4.3-3.26-1.32-.22-2.57-.36-3.83-.5-.82-.09-1.65-.18-2.51-.3-.77-.11-1.22-.38-1.29-.48-.07-.12.04-.32.13-.42.44-.45,1.63-.93,3.45-.9Z"/>
  <path class="cls-1" d="m84.38,49.96c5.8,0,8.53,1.64,11.69,3.54,3.06,1.84,6.53,3.87,12.66,4.2-3.04,17.87-18.63,31.52-37.35,31.52-1.41,0-2.55,1.14-2.55,2.55s1.14,2.55,2.55,2.55c23.71,0,43-19.29,43-43S95.08,8.31,71.38,8.31,28.38,27.6,28.38,51.31c0,6.66,1.48,13.05,4.41,18.98.62,1.26,2.15,1.78,3.41,1.16,1.26-.62,1.78-2.15,1.16-3.41-2.58-5.23-3.88-10.85-3.88-16.73,0-.44.02-.88.03-1.31,5.01.21,7.61,1.73,10.55,3.5,3.33,2,7.11,4.26,14.31,4.26s10.98-2.27,14.31-4.26c3.16-1.9,5.9-3.54,11.69-3.54Zm-26.01,2.71c-5.8,0-8.53-1.64-11.69-3.54-3.06-1.84-6.53-3.87-12.66-4.2,3.04-17.87,18.63-31.52,37.35-31.52,20.9,0,37.9,17,37.9,37.9,0,.44-.02.88-.03,1.31-5.01-.21-7.61-1.73-10.55-3.5-3.33-2-7.11-4.26-14.31-4.26s-10.98,2.27-14.31,4.26c-3.16,1.9-5.9,3.54-11.69,3.54Z"/>
</svg>